# xmcd
#
# Track frame offsets:
#	150
#	11928
#	22561
#	35385
#	45316
#	56399
#	65848
#	75904
#	87990
#	98511
#	109077
#	119276
#	128959
#	140859
#	151357
#	164161
#	175605
#	191229
#	202691
#	212178
#	222430
#	232304
#	247074
#	259496
#	272419
#	282492
#	294828
#
# Disc length: 4098 seconds
#
# Revision: 2
# Processed by: cddbd v1.5.2PL0 Copyright (c) Steve Scherf et al.
# Submitted via: audiograbber 1.83.01
#
DISCID=8d10001b
DTITLE=Various Artist - Northern Soul Of Revue
DYEAR=1900
DGENRE=Northern Soul
TTITLE0=Jack Montgomery - Baby, Baby Take A Chance On Me (Vocal)
TTITLE1=Two People - Stop, Leave My Heart Alone
TTITLE2=Mirettes - Take Me For A Little While
TTITLE3=Godoy Colbert - Baby I Like It
TTITLE4=Party Brothers - Do The Groundhog
TTITLE5=Frankie Vance - You Are My Solution
TTITLE6=Lee Charles - Wrong Number
TTITLE7=June Gatlin - Baby Cakes
TTITLE8=Saints - Come On, Let's Dance
TTITLE9=Marvin L. Sims - Get Off My Back
TTITLE10=Stu Gardiner - Never Gonna Hurt Again
TTITLE11=Garland Green - Girl I Love You
TTITLE12=Joyce Hopson - This Time
TTITLE13=Frankie Vance - Do You Hear Me Baby
TTITLE14=Abraham and His Sons - Your Mother Understood
TTITLE15=Jack Montgomery - Baby, Baby Take A Chance On Me (Inst.)
TTITLE16=Jimmy Graham - Love Can't Be Modernized
TTITLE17=Lee Charles - If That Ain't Loving You
TTITLE18=Garland Green - Rained 40 Days and Nights
TTITLE19=Two People - Love Dust
TTITLE20=Joyce Hopson - I Surrender To You
TTITLE21=Mirettes - In The Midnight Hour
TTITLE22=Frankie Vance - Somewhere In Your Life
TTITLE23=Darrow Fletcher - I Like The Way I Feel
TTITLE24=Garland Green - Ain't That Good Enough
TTITLE25=Chi-Lites - Love Me
TTITLE26=Len Woods - I'm In Love
EXTD=
EXTT0=
EXTT1=
EXTT2=
EXTT3=
EXTT4=
EXTT5=
EXTT6=
EXTT7=
EXTT8=
EXTT9=
EXTT10=
EXTT11=
EXTT12=
EXTT13=
EXTT14=
EXTT15=
EXTT16=
EXTT17=
EXTT18=
EXTT19=
EXTT20=
EXTT21=
EXTT22=
EXTT23=
EXTT24=
EXTT25=
EXTT26=
PLAYORDER=
